<svg xmlns="http://www.w3.org/2000/svg" viewBox="0 0 80 23.14"><defs><style>.cls-1{fill:#0e80c4;}.cls-2{fill:#fff;}.cls-3{fill:#0273b3;}</style></defs><g id="Layer_2" data-name="Layer 2"><g id="Layer_1-2" data-name="Layer 1"><rect class="cls-1" width="80" height="23.14" rx="11.57"/><path class="cls-2" d="M33.34,14.71a5.29,5.29,0,0,1-2.14.38,3.77,3.77,0,0,1-4-4.09,4,4,0,0,1,4.22-4.25,4.4,4.4,0,0,1,1.92.36L33.09,8a3.63,3.63,0,0,0-1.63-.34A3,3,0,0,0,28.31,11a2.94,2.94,0,0,0,3.11,3.25,4.25,4.25,0,0,0,1.7-.33Z"/><path class="cls-2" d="M34.61,6.45h1.06v3.63h0a2,2,0,0,1,.76-.75A2.15,2.15,0,0,1,37.52,9c.78,0,2,.48,2,2.49V15h-1V11.64c0-.94-.35-1.73-1.35-1.73A1.51,1.51,0,0,0,35.74,11a1.31,1.31,0,0,0-.07.51V15H34.61Z"/><path class="cls-2" d="M44.48,15l-.08-.73h0a2.16,2.16,0,0,1-1.77.86,1.66,1.66,0,0,1-1.78-1.66c0-1.41,1.25-2.18,3.49-2.16v-.12A1.2,1.2,0,0,0,43,9.81a3,3,0,0,0-1.52.43l-.24-.69A3.64,3.64,0,0,1,43.14,9c1.78,0,2.21,1.21,2.21,2.38v2.17A8.47,8.47,0,0,0,45.44,15Zm-.15-3c-1.15,0-2.46.18-2.46,1.31a.93.93,0,0,0,1,1,1.45,1.45,0,0,0,1.4-1,1.36,1.36,0,0,0,.06-.33Z"/><path class="cls-2" d="M48.28,7.5V9.17h1.51V10H48.28V13.1c0,.72.2,1.13.79,1.13a2.13,2.13,0,0,0,.61-.08l0,.8a2.69,2.69,0,0,1-.94.14,1.5,1.5,0,0,1-1.14-.44,2.17,2.17,0,0,1-.4-1.51V10h-.9v-.8h.9V7.77Z"/><path class="cls-2" d="M53,14.36,57.49,7.8v0h-4.1V6.89h5.46v.63l-4.46,6.54v0h4.52V15H53Z"/><path class="cls-2" d="M63.37,15l-.08-.73h0a2.17,2.17,0,0,1-1.77.86,1.66,1.66,0,0,1-1.78-1.66c0-1.41,1.25-2.18,3.49-2.16v-.12a1.2,1.2,0,0,0-1.32-1.35,2.93,2.93,0,0,0-1.51.43l-.24-.69A3.64,3.64,0,0,1,62,9c1.77,0,2.21,1.21,2.21,2.38v2.17A8.47,8.47,0,0,0,64.33,15Zm-.15-3c-1.16,0-2.46.18-2.46,1.31a.93.93,0,0,0,1,1,1.45,1.45,0,0,0,1.41-1,1.36,1.36,0,0,0,.06-.33Z"/><path class="cls-2" d="M65.94,6.45H67V15H65.94Z"/><path class="cls-2" d="M74,12a2.83,2.83,0,0,1-2.89,3.08,2.76,2.76,0,0,1-2.79-3A2.84,2.84,0,0,1,71.23,9,2.75,2.75,0,0,1,74,12Zm-4.61.06c0,1.27.73,2.23,1.76,2.23s1.77-1,1.77-2.25c0-1-.49-2.24-1.74-2.24S69.42,11,69.42,12.08Z"/><rect class="cls-2" x="2.61" y="1.57" width="20" height="20" rx="7.82"/><path class="cls-1" d="M6.19,5.08A1.9,1.9,0,0,0,5.06,6.17C5,6.42,5,6.51,5,11.53v5.12l.1.26a1.89,1.89,0,0,0,.67.89c.49.34.12.32,6,.34,3.85,0,5.33,0,5.56,0a1.92,1.92,0,0,0,1.39-1.05c.12-.26.12-.28.14-1.44a6,6,0,0,0,0-1.17.08.08,0,0,0-.07,0,5.58,5.58,0,0,1-.94.8,7.57,7.57,0,0,1-6.47.92,3.54,3.54,0,0,0-.61-.13,4.32,4.32,0,0,0-.73.16,5.13,5.13,0,0,1-1.79.29c-.82,0-.94-.06-.59-.29.62-.39,1.09-.94,1.09-1.28,0-.14-.05-.22-.33-.53a6.2,6.2,0,0,1-1.52-2.63,6,6,0,0,1,.16-3.46A6.37,6.37,0,0,1,9.57,5.16L9.85,5H8.16A7.61,7.61,0,0,0,6.19,5.08Z"/><path class="cls-3" d="M14.32,8.6l-.11.09v1.45c0,.8,0,1.52,0,1.61a.34.34,0,0,0,.6.21l.12-.11V10.28c0-1.56,0-1.58-.1-1.67A.41.41,0,0,0,14.32,8.6Z"/><path class="cls-3" d="M9.15,8.78c-.3,0-.35,0-.43.14a.25.25,0,0,0,.06.39c.07.07.19.08.76.08s.67,0,.65.06-.37.5-.79,1-.78,1-.8,1.07a.4.4,0,0,0,.19.42A6.44,6.44,0,0,0,10,12h1.11l.09-.12a.26.26,0,0,0,0-.41c-.11-.11-.13-.11-.86-.11a4.15,4.15,0,0,1-.74,0l.62-.8c1-1.28,1.1-1.43.94-1.66-.06-.07-.15-.09-.5-.12A12.62,12.62,0,0,0,9.15,8.78Z"/><path class="cls-3" d="M12,9.63a1.41,1.41,0,0,0-.61.62,2,2,0,0,0,0,1.07,1.08,1.08,0,0,0,1.51.69l.23-.12.12.09a.36.36,0,0,0,.58-.14,10.59,10.59,0,0,0,0-2,.34.34,0,0,0-.57-.13c-.1.08-.15.09-.21,0A1,1,0,0,0,12,9.63Zm.87.67a.65.65,0,0,1,.22.61c-.06.43-.4.66-.74.5a.6.6,0,0,1-.32-.59C12.05,10.32,12.49,10,12.88,10.3Z"/><path class="cls-3" d="M16.13,9.57a1.31,1.31,0,0,0-.78.7,1.66,1.66,0,0,0,0,1.2,1.29,1.29,0,0,0,2.09.22,1.12,1.12,0,0,0,.3-.86,1.08,1.08,0,0,0-.35-.91,1,1,0,0,0-.48-.31A1.59,1.59,0,0,0,16.13,9.57Zm.58.68a.59.59,0,0,1,.32.58.58.58,0,0,1-.33.58.38.38,0,0,1-.36,0,.67.67,0,0,1,0-1.18A.38.38,0,0,1,16.71,10.25Z"/></g></g></svg>