<svg xmlns="http://www.w3.org/2000/svg" viewBox="0 0 81 24.14"><defs><style>.cls-1,.cls-3{fill:#fff;}.cls-1{stroke:#3c569f;stroke-miterlimit:10;}.cls-2{fill:#3c569f;}</style></defs><g id="Layer_2" data-name="Layer 2"><g id="Layer_1-2" data-name="Layer 1"><rect class="cls-1" x="0.5" y="0.5" width="80" height="23.14" rx="11.57"/><path class="cls-2" d="M35,15.56a5.16,5.16,0,0,1-2.13.39,3.78,3.78,0,0,1-4-4.09,4,4,0,0,1,4.22-4.25A4.37,4.37,0,0,1,35,8l-.25.85a3.82,3.82,0,0,0-1.63-.33A3,3,0,0,0,30,11.82a2.94,2.94,0,0,0,3.1,3.25,4.1,4.1,0,0,0,1.71-.34Z"/><path class="cls-2" d="M36.25,7.31h1v3.62h0a1.91,1.91,0,0,1,.75-.74,2.19,2.19,0,0,1,1.08-.3c.78,0,2,.48,2,2.48v3.46H40.13V12.49c0-.93-.35-1.73-1.34-1.73a1.53,1.53,0,0,0-1.42,1.06,1.26,1.26,0,0,0-.07.5v3.51h-1Z"/><path class="cls-2" d="M46.12,15.83,46,15.09h0a2.15,2.15,0,0,1-1.77.87,1.66,1.66,0,0,1-1.78-1.67c0-1.4,1.25-2.17,3.49-2.16V12a1.19,1.19,0,0,0-1.32-1.34,2.93,2.93,0,0,0-1.51.43l-.24-.7a3.63,3.63,0,0,1,1.91-.51c1.77,0,2.2,1.21,2.2,2.37v2.17a8.44,8.44,0,0,0,.1,1.4Zm-.15-3c-1.16,0-2.46.18-2.46,1.31a.93.93,0,0,0,1,1,1.45,1.45,0,0,0,1.41-1,1.35,1.35,0,0,0,.06-.34Z"/><path class="cls-2" d="M49.91,8.35V10h1.52v.8H49.91V14c0,.72.21,1.13.8,1.13a2.21,2.21,0,0,0,.61-.07l0,.79a2.39,2.39,0,0,1-.93.15,1.46,1.46,0,0,1-1.14-.45A2.15,2.15,0,0,1,48.88,14V10.82H48V10h.9V8.63Z"/><path class="cls-2" d="M55.19,7.74h4.36v.88H56.24V11.3H59.3v.87H56.24v3.66H55.19Z"/><path class="cls-2" d="M61,7.85A9.69,9.69,0,0,1,63,7.68a3.3,3.3,0,0,1,2.21.59,1.7,1.7,0,0,1,.68,1.43,1.92,1.92,0,0,1-1.37,1.77v0a2.07,2.07,0,0,1,1.67,2,2.16,2.16,0,0,1-.69,1.62,4,4,0,0,1-2.79.76A11.75,11.75,0,0,1,61,15.8Zm1,3.31h1c1.1,0,1.75-.58,1.75-1.35,0-1-.72-1.32-1.77-1.32a4.33,4.33,0,0,0-.93.07Zm0,3.87a5.2,5.2,0,0,0,.88.05c1.08,0,2.07-.39,2.07-1.57S64.09,12,63,12h-.87Z"/><rect class="cls-3" x="3.11" y="2.07" width="20" height="20" rx="7.82"/><path class="cls-2" d="M6.53,5.49V18.65h7V13.56H11.83V11.49h1.71V9.75a2.3,2.3,0,0,1,2.29-2.3h1.79V9.32H16.34a.73.73,0,0,0-.73.73v1.44h2l-.27,2.07H15.61v5.09h4.08V5.49Z"/></g></g></svg>