<svg xmlns="http://www.w3.org/2000/svg" viewBox="0 0 80.49 23.62"><defs><style>.cls-1{fill:#fff;stroke:#36a852;stroke-miterlimit:10;stroke-width:0.49px;}.cls-2{fill:#36a852;}.cls-3{fill:#4070b7;}.cls-4{fill:#ea4535;}.cls-5{fill:#557ebf;}.cls-6{fill:#f9bc15;}</style></defs><g id="Layer_2" data-name="Layer 2"><g id="Layer_1-2" data-name="Layer 1"><rect class="cls-1" x="0.24" y="0.24" width="80" height="23.14" rx="11.57"/><path class="cls-2" d="M29.39,14.53a5.2,5.2,0,0,1-2.13.38,3.77,3.77,0,0,1-4-4.09,4,4,0,0,1,4.22-4.24,4.26,4.26,0,0,1,1.92.36l-.26.85a3.77,3.77,0,0,0-1.63-.34,3,3,0,0,0-3.15,3.34A2.94,2.94,0,0,0,27.48,14a4.08,4.08,0,0,0,1.7-.34Z"/><path class="cls-2" d="M30.67,6.28h1V9.9h0a2,2,0,0,1,.75-.74,2.22,2.22,0,0,1,1.08-.3c.78,0,2,.48,2,2.48v3.45h-1V11.46c0-.94-.35-1.73-1.35-1.73a1.51,1.51,0,0,0-1.41,1.06,1.25,1.25,0,0,0-.08.5v3.5h-1Z"/><path class="cls-2" d="M37.46,8.29c.15-.52.69-.68.69-1.12a.39.39,0,0,0-.41-.41.73.73,0,0,0-.58.42l-.41-.24a1.28,1.28,0,0,1,1.17-.8.94.94,0,0,1,1,.89c0,.68-.64.87-.91,1.41Zm-.13,6.5V9h1.05v5.8Z"/><path class="cls-2" d="M41.78,10.27h1V6.79A14.24,14.24,0,0,1,45,6.61a4.65,4.65,0,0,1,3.27,1,3.77,3.77,0,0,1,1.14,2.94,4.31,4.31,0,0,1-1.16,3.15,5,5,0,0,1-3.58,1.17,16.72,16.72,0,0,1-1.89-.09V11.11h-1Zm4.2.84H43.82V14a7.76,7.76,0,0,0,1,0,3.12,3.12,0,0,0,3.46-3.47c0-1.93-1.07-3.12-3.28-3.12a5.89,5.89,0,0,0-1.22.11v2.71H46Z"/><path class="cls-2" d="M56.56,7.69a1.84,1.84,0,0,1,.22.87,1,1,0,0,1-1,1h-.13v3.63c0,.6,0,1.13,0,1.58h-.93l-.06-.94h0a2.21,2.21,0,0,1-1.92,1.08c-.92,0-2-.51-2-2.55V9h1.06V12.2c0,1.11.33,1.85,1.29,1.85a1.52,1.52,0,0,0,1.39-1,1.33,1.33,0,0,0,.1-.54V9h.83c.42,0,.56-.17.56-.47a1.45,1.45,0,0,0-.2-.69Z"/><path class="cls-2" d="M63,8a2,2,0,0,1,.2.87,1,1,0,0,1-1.12,1,3,3,0,0,1,.6,1.91,2.84,2.84,0,0,1-2.89,3.09,2.76,2.76,0,0,1-2.78-3,2.83,2.83,0,0,1,2.88-3.08,3,3,0,0,1,1,.17,3.63,3.63,0,0,0,1,.31.43.43,0,0,0,.48-.48,1.47,1.47,0,0,0-.19-.71ZM58,11.9c0,1.28.73,2.23,1.76,2.23s1.76-.94,1.76-2.25c0-1-.49-2.23-1.73-2.23S58,10.8,58,11.9Zm1.39-5.42,1,1.72h-.74L58.27,6.48Z"/><path class="cls-2" d="M64,10.56C64,10,64,9.47,64,9h.93L65,10h0a2.14,2.14,0,0,1,1.92-1.09c.8,0,2,.48,2,2.47v3.46H67.9V11.45c0-.94-.34-1.72-1.34-1.72a1.51,1.51,0,0,0-1.42,1.08,1.75,1.75,0,0,0-.07.49v3.49H64Z"/><path class="cls-2" d="M75.68,9c0,.42-.05.89-.05,1.59V14a3.32,3.32,0,0,1-.83,2.65,3.11,3.11,0,0,1-2.11.69,3.78,3.78,0,0,1-1.93-.48L71,16a3.32,3.32,0,0,0,1.71.45c1.08,0,1.87-.56,1.87-2V13.8h0a2.05,2.05,0,0,1-1.84,1,2.59,2.59,0,0,1-2.47-2.83,2.78,2.78,0,0,1,2.61-3.08,1.92,1.92,0,0,1,1.81,1h0l0-.88Zm-1.09,2.29a1.75,1.75,0,0,0-.06-.48,1.53,1.53,0,0,0-1.48-1.11c-1,0-1.73.85-1.73,2.19C71.32,13,71.9,14,73,14a1.54,1.54,0,0,0,1.46-1.08,1.88,1.88,0,0,0,.09-.57Z"/><path class="cls-3" d="M15.63,3.43A5.87,5.87,0,0,0,9.34,5.25l2.78,2.33Z"/><path class="cls-4" d="M9.34,5.25A5.89,5.89,0,0,0,8,9a6.47,6.47,0,0,0,.58,2.8l3.57-4.24Z"/><path class="cls-5" d="M13.85,6.78a2.25,2.25,0,0,1,1.72,3.7l3.5-4.16a5.87,5.87,0,0,0-3.44-2.89L12.12,7.58a2.29,2.29,0,0,1,1.73-.8"/><path class="cls-6" d="M13.85,11.27A2.25,2.25,0,0,1,11.59,9a2.2,2.2,0,0,1,.53-1.44L8.55,11.82a20.79,20.79,0,0,0,2.68,3.81l4.34-5.16a2.22,2.22,0,0,1-1.72.8"/><path class="cls-2" d="M15.49,17.05c2-3.07,4.24-4.45,4.24-8a5.87,5.87,0,0,0-.66-2.71l-7.84,9.31c.33.43.67.92,1,1.43,1.2,1.85.87,2.94,1.63,2.94s.43-1.1,1.63-2.95"/></g></g></svg>